# xmcd
#
# Track frame offsets:
#	150
#	12265
#	31419
#	46544
#	54057
#	68494
#	83464
#
# Disc length: 1287 seconds
# Revision: 0
# Processed by: cddbd v1.5.2PL0 Copyright (c) Steve Scherf et al.
# Submitted via: dBpowerAMP V12.0
#
DISCID=3c050507
DTITLE=Josiah Altschuler - Murder Ballads and Love Songs for Cello and Voice
DYEAR=2008
DGENRE=Jazz
TTITLE0=Country Blues
TTITLE1=The Ol' Diamondback Sturgeon
TTITLE2=Crow Jane
TTITLE3=I Still Miss Someone
TTITLE4=Fourteen Rivers, Fourteen Floods
TTITLE5=Over the Falls
TTITLE6=One Cup of Coffee (live)
EXTD=
EXTT0=
EXTT1=
EXTT2=
EXTT3=
EXTT4=
EXTT5=
EXTT6=
PLAYORDER=
